<svg width="26" height="20" viewBox="0 0 26 20" fill="none" xmlns="http://www.w3.org/2000/svg">
<path d="M19.7169 7.78525C20.8511 8.22812 22.1357 8.35923 23.3722 8.15833V18.3333C23.3722 18.5764 23.2518 18.8096 23.0373 18.9815C22.8229 19.1534 22.5321 19.25 22.2289 19.25H1.64825C1.34501 19.25 1.05419 19.1534 0.839767 18.9815C0.625344 18.8096 0.504883 18.5764 0.504883 18.3333V3.66666C0.504883 3.42355 0.625344 3.19039 0.839767 3.01848C1.05419 2.84657 1.34501 2.75 1.64825 2.75H16.6264C16.5509 3.04608 16.512 3.35316 16.512 3.66666C16.5101 4.75571 16.9939 5.80942 17.8761 6.63758L12.0083 10.7094L4.67474 5.71816L3.19523 7.11516L12.022 13.1239L19.7169 7.78525ZM22.2289 6.41666C21.7784 6.41666 21.3324 6.34553 20.9162 6.20733C20.5001 6.06913 20.1219 5.86657 19.8034 5.61121C19.4849 5.35585 19.2322 5.05269 19.0599 4.71904C18.8875 4.3854 18.7988 4.0278 18.7988 3.66666C18.7988 3.30553 18.8875 2.94793 19.0599 2.61428C19.2322 2.28064 19.4849 1.97748 19.8034 1.72212C20.1219 1.46676 20.5001 1.2642 20.9162 1.126C21.3324 0.987795 21.7784 0.916664 22.2289 0.916664C23.1386 0.916664 24.011 1.2064 24.6543 1.72212C25.2976 2.23785 25.659 2.93732 25.659 3.66666C25.659 4.39601 25.2976 5.09548 24.6543 5.61121C24.011 6.12693 23.1386 6.41666 22.2289 6.41666Z" fill="#FFB422"/>
</svg>
