<svg width="22" height="18" viewBox="0 0 22 18" fill="none" xmlns="http://www.w3.org/2000/svg">
<path d="M21.229 13.0517V16.293C21.2292 16.5251 21.1195 16.7486 20.9222 16.9183C20.7248 17.0881 20.4545 17.1916 20.1657 17.2078C19.6661 17.2353 19.2579 17.25 18.9423 17.25C8.83837 17.25 0.648438 10.6839 0.648438 2.58333C0.648438 2.33033 0.665588 2.00308 0.701032 1.6025C0.721296 1.37099 0.850335 1.15426 1.06211 0.996041C1.27389 0.837823 1.55264 0.749895 1.84211 0.75H5.88506C6.02688 0.749885 6.16369 0.792037 6.26892 0.868269C6.37414 0.9445 6.44027 1.04937 6.45445 1.1625C6.48075 1.37333 6.50476 1.54108 6.52763 1.6685C6.75486 2.93985 7.22051 4.17635 7.90882 5.33608C8.01744 5.51942 7.94655 5.7385 7.74074 5.85583L5.27336 7.26933C6.78198 10.0876 9.58333 12.3335 13.0986 13.543L14.8593 11.5685C14.9313 11.4878 15.0363 11.43 15.156 11.405C15.2758 11.3801 15.4026 11.3896 15.5145 11.4319C16.9609 11.9827 18.5028 12.3551 20.088 12.5365C20.2469 12.5548 20.4561 12.575 20.7168 12.5952C20.8577 12.6067 20.9882 12.6599 21.0831 12.7442C21.1779 12.8285 21.2304 12.9381 21.2302 13.0517H21.229Z" fill="#00C938"/>
</svg>
