<svg width="20" height="20" viewBox="0 0 20 20" fill="none" xmlns="http://www.w3.org/2000/svg">
<path d="M9.0835 9.08334V5.41668H10.9168V9.08334H14.5835V10.9167H10.9168V14.5833H9.0835V10.9167H5.41683V9.08334H9.0835ZM10.0002 19.1667C4.93741 19.1667 0.833496 15.0628 0.833496 10C0.833496 4.93726 4.93741 0.833344 10.0002 0.833344C15.0629 0.833344 19.1668 4.93726 19.1668 10C19.1668 15.0628 15.0629 19.1667 10.0002 19.1667ZM10.0002 17.3333C11.9451 17.3333 13.8103 16.5607 15.1856 15.1855C16.5609 13.8102 17.3335 11.9449 17.3335 10C17.3335 8.05509 16.5609 6.18983 15.1856 4.81456C13.8103 3.43929 11.9451 2.66668 10.0002 2.66668C8.05524 2.66668 6.18998 3.43929 4.81471 4.81456C3.43945 6.18983 2.66683 8.05509 2.66683 10C2.66683 11.9449 3.43945 13.8102 4.81471 15.1855C6.18998 16.5607 8.05524 17.3333 10.0002 17.3333Z" fill="#303030"/>
</svg>
